<?xml version="1.0" encoding="UTF-8"?><svg id="a" xmlns="http://www.w3.org/2000/svg" xmlns:xlink="http://www.w3.org/1999/xlink" viewBox="0 0 2238.74 486.87"><defs><linearGradient id="b" x1="168.44" y1="403.26" x2="168.44" y2="0" gradientUnits="userSpaceOnUse"><stop offset="0" stop-color="#847d72"/><stop offset="1" stop-color="#c7c0b5"/></linearGradient><linearGradient id="c" x1="277.88" y1="486.87" x2="277.88" y2="124.4" gradientUnits="userSpaceOnUse"><stop offset="0" stop-color="#539295"/><stop offset="1" stop-color="#84ccd6"/></linearGradient><linearGradient id="d" x1="277.27" y1="486.87" x2="277.27" y2="360.69" gradientUnits="userSpaceOnUse"><stop offset="0" stop-color="#539295"/><stop offset="1" stop-color="#84ccd6"/></linearGradient></defs><path d="M537.58,241.94c9.32-1.55,21.53-2.89,37.07-2.89,19.09,0,33.08,4.44,41.96,12.43,8.21,7.1,13.1,17.98,13.1,31.3s-4,24.2-11.54,31.97c-10.21,10.88-26.86,16.43-45.73,16.43-5.77,0-11.1-.22-15.54-1.33v59.94h-19.31v-147.85ZM556.89,314.09c4.22,1.11,9.55,1.55,15.98,1.55,23.31,0,37.52-11.32,37.52-31.97s-13.99-29.3-35.3-29.3c-8.44,0-14.87.67-18.2,1.55v58.16Z" style="fill:#6aa9b2;"/><path d="M733.16,319.64h-58.16v53.95h64.82v16.21h-84.14v-149.63h80.81v16.21h-61.49v47.29h58.16v15.98Z" style="fill:#6aa9b2;"/><path d="M764.9,242.16c11.77-1.78,25.75-3.11,41.07-3.11,27.75,0,47.51,6.44,60.61,18.65,13.32,12.21,21.09,29.53,21.09,53.72s-7.55,44.4-21.53,58.16c-13.99,13.99-37.07,21.53-66.16,21.53-13.76,0-25.31-.67-35.08-1.78v-147.19ZM784.22,374.47c4.88.89,11.99,1.11,19.54,1.11,41.29,0,63.71-23.09,63.71-63.49.22-35.3-19.76-57.72-60.61-57.72-9.99,0-17.54.89-22.64,2v118.1Z" style="fill:#6aa9b2;"/><path d="M912.75,242.16c9.77-2,23.75-3.11,37.07-3.11,20.65,0,33.97,3.77,43.29,12.21,7.55,6.66,11.77,16.87,11.77,28.42,0,19.76-12.43,32.86-28.19,38.18v.67c11.54,4,18.43,14.65,21.98,30.19,4.88,20.87,8.44,35.3,11.54,41.07h-19.98c-2.44-4.22-5.77-17.09-9.99-35.74-4.44-20.65-12.43-28.42-29.97-29.08h-18.2v64.82h-19.31v-147.63ZM932.07,310.31h19.76c20.65,0,33.74-11.32,33.74-28.42,0-19.31-13.99-27.75-34.41-27.97-9.32,0-15.98.89-19.09,1.78v54.61Z" style="fill:#6aa9b2;"/><path d="M1160.72,313.42c0,51.5-31.3,78.81-69.49,78.81s-67.27-30.64-67.27-75.92c0-47.51,29.53-78.59,69.49-78.59s67.27,31.3,67.27,75.7ZM1044.62,315.86c0,31.97,17.32,60.61,47.73,60.61s47.95-28.19,47.95-62.16c0-29.75-15.54-60.83-47.73-60.83s-47.95,29.53-47.95,62.38Z" style="fill:#6aa9b2;"/><path d="M1358.97,324.08c-1.11-20.87-2.44-45.95-2.22-64.6h-.67c-5.11,17.54-11.32,36.19-18.87,56.83l-26.42,72.59h-14.65l-24.2-71.26c-7.1-21.09-13.1-40.4-17.32-58.16h-.44c-.44,18.65-1.55,43.73-2.89,66.16l-4,64.16h-18.43l10.43-149.63h24.64l25.53,72.37c6.22,18.43,11.32,34.85,15.1,50.39h.67c3.77-15.1,9.1-31.52,15.76-50.39l26.64-72.37h24.64l9.32,149.63h-18.87l-3.77-65.71Z" style="fill:#6aa9b2;"/><path d="M1433.33,342.72l-15.54,47.06h-19.98l50.84-149.63h23.31l51.06,149.63h-20.65l-15.98-47.06h-53.06ZM1482.4,327.63l-14.65-43.07c-3.33-9.77-5.55-18.65-7.77-27.31h-.44c-2.22,8.88-4.66,17.98-7.55,27.08l-14.65,43.29h45.07Z" style="fill:#6aa9b2;"/><path d="M1545,389.79v-149.63h21.09l47.95,75.7c11.1,17.54,19.76,33.3,26.86,48.62l.44-.22c-1.78-19.98-2.22-38.18-2.22-61.49v-62.6h18.2v149.63h-19.54l-47.51-75.92c-10.43-16.65-20.42-33.74-27.97-49.95l-.67.22c1.11,18.87,1.55,36.85,1.55,61.72v63.94h-18.2Z" style="fill:#6aa9b2;"/><path d="M1719.49,256.59h-45.51v-16.43h110.78v16.43h-45.73v133.2h-19.54v-133.2Z" style="fill:#6aa9b2;"/><path d="M1820.72,240.16v88.58c0,33.52,14.87,47.73,34.85,47.73,22.2,0,36.41-14.65,36.41-47.73v-88.58h19.54v87.25c0,45.95-24.2,64.82-56.61,64.82-30.64,0-53.72-17.54-53.72-63.94v-88.13h19.54Z" style="fill:#6aa9b2;"/><path d="M1961.69,342.72l-15.54,47.06h-19.98l50.84-149.63h23.31l51.06,149.63h-20.65l-15.98-47.06h-53.06ZM2010.75,327.63l-14.65-43.07c-3.33-9.77-5.55-18.65-7.77-27.31h-.44c-2.22,8.88-4.66,17.98-7.55,27.08l-14.65,43.29h45.07Z" style="fill:#6aa9b2;"/><path d="M2073.35,389.79v-149.63h21.09l47.95,75.7c11.1,17.54,19.76,33.3,26.86,48.62l.44-.22c-1.78-19.98-2.22-38.18-2.22-61.49v-62.6h18.2v149.63h-19.54l-47.51-75.92c-10.43-16.65-20.42-33.74-27.97-49.95l-.67.22c1.11,18.87,1.55,36.85,1.55,61.72v63.94h-18.2Z" style="fill:#6aa9b2;"/><path d="M2238.74,240.16v149.63h-19.31v-149.63h19.31Z" style="fill:#6aa9b2;"/><path d="M0,403.26V0c82.28.33,164.55.66,246.83.98,8.48.79,36.53,4.49,60.27,27.68,28.89,28.22,29.75,64.17,29.78,71.08-.05,8.7-1.25,41.56-26.41,70.8-26.57,30.88-61.28,36.14-69.47,37.16-47.04-.42-94.08-.84-141.12-1.26l.42-66.17,140.69.42c2.28-.2,8.96-1.1,14.29-6.46,3.77-3.79,5.15-8.09,5.69-9.83,1.06-3.44,1.11-6.6,1.19-9.69.02-.87,0-3.3-.07-8.15-.03-2.13-.04-3.22-.07-4-.08-2.15-.19-5.13-.63-7.94-.36-2.3-1.12-5.57-2.88-9.41-.52-1.05-1.37-2.58-2.66-4.24-9.58-12.23-28.68-11.85-38.82-11.8-20.31.1-40.62.2-60.93.3-28.3.14-56.59.28-84.89.42l.42,259.19L0,403.26Z" style="fill:url(#b);"/><path d="M455.87,486.39V124.4l-188.1,184.82-98.43-95.69-69.45-1.09,3.83,209.98c.34,4.81,1.36,11.92,4.58,19.89,4.58,11.35,11.17,18.36,15.79,23.17,6.57,6.85,14.4,15.02,27.48,19.07,9.46,2.93,17.82,2.52,22.9,1.85-.27-58.28-.55-116.56-.82-174.84,31.87,31.21,63.75,62.43,95.62,93.64,36.57-35.61,73.14-71.22,109.7-106.83.73,62.68,1.46,125.36,2.19,188.03h74.71Z" style="fill:url(#c);"/><path d="M200.44,486.87c.55-.42,0-111.69,0-111.69l68.62,67.53,84.07-82.02.96,126.18h-153.65Z" style="fill:url(#d);"/></svg>